# AST/ASF file generated using VICON BodyLanguage
# -----------------------------------------------
:version 1.10
:name VICON
:units
  mass 1.0
  length 0.45
  angle deg
:documentation
   .ast/.asf automatically generated from VICON data using
   VICON BodyBuilder and BodyLanguage model FoxedUp or BRILLIANT.MOD
:root
   order TX TY TZ RX RY RZ
   axis XYZ
   position 0 0 0  
   orientation 0 0 0 
:bonedata
  begin
     id 1 
     name lhipjoint
     direction 0.523584 -0.783993 0.333487 
     length 2.44404 
     axis 0 0 0  XYZ
  end
  begin
     id 2 
     name lfemur
     direction 0.34202 -0.939693 0  
     length 7.29523  
     axis 0 0 20  XYZ
    dof rx ry rz
    limits (-160.0 20.0)
           (-70.0 70.0)
           (-60.0 70.0)
  end
  begin
     id 3 
     name ltibia
     direction 0.34215 -0.939645 0   
     length 7.81194   
     axis 0 0 20   XYZ
    dof rx
    limits (-10.0 170.0)
  end
  begin
     id 4 
     name lfoot
     direction 0.0941847 -0.25877 0.961336   
     length 2.41437   
     axis -90 7.62852e-016 20   XYZ
    dof rx rz
    limits (-45.0 90.0)
           (-70.0 20.0)
  end
  begin
     id 5 
     name ltoes
     direction 1.53526e-011 -4.21768e-011 1   
     length 1.2048   
     axis -90 7.62852e-016 20   XYZ
    dof rx
    limits (-90.0 20.0)
  end
  begin
     id 6 
     name rhipjoint
     direction -0.46599 -0.814191 0.346332   
     length 2.35339  
     axis 0 0 0  XYZ 
  end
  begin
     id 7 
     name rfemur
     direction -0.34202 -0.939693 0   
     length 7.34966   
     axis 0 0 -20   XYZ
    dof rx ry rz
    limits (-160.0 20.0)
           (-70.0 70.0)
           (-70.0 60.0)
  end
  begin
     id 8 
     name rtibia
     direction -0.34202 -0.939693 0   
     length 7.89934   
     axis 0 0 -20   XYZ
    dof rx
    limits (-10.0 170.0)
 end
 begin
     id 9 
     name rfoot
     direction -0.0975468 -0.268008 0.958466   
     length 2.27725  
     axis -90 -7.62852e-016 -20   XYZ
    dof rx rz
    limits (-45.0 90.0)
           (-20.0 70.0)
  end
  begin
     id 10 
     name rtoes
     direction -1.53563e-011 -4.22022e-011 1   
     length 1.13683   
     axis -90 -7.62852e-016 -20   XYZ
    dof rx
    limits (-90.0 20.0)
  end
  begin
     id 11 
     name lowerback
     direction -0.00456414 0.999242 -0.0386661   
     length 2.16968   
     axis 0 0 0   XYZ
    dof rx ry rz
    limits (-20.0 45.0)
           (-30.0 30.0)
           (-30.0 30.0)
  end
  begin
     id 12 
     name upperback
     direction 0.0297078 0.998988 0.0337799   
     length 2.15674   
     axis 0 0 0   XYZ
    dof rx ry rz
    limits (-20.0 45.0)
           (-30.0 30.0)
           (-30.0 30.0)
  end
  begin
     id 13 
     name thorax
     direction 0.0309305 0.998202 0.0513506   
     length 2.16319   
     axis 0 0 0   XYZ
    dof rx ry rz
    limits (-20.0 45.0)
           (-30.0 30.0)
           (-30.0 30.0)
  end
  begin
     id 14 
     name lowerneck
     direction -0.103039 0.983474 0.148872   
     length 1.64318   
     axis 0 0 0   XYZ
    dof rx ry rz
    limits (-20.0 45.0)
           (-30.0 30.0)
           (-30.0 30.0)
  end
  begin
     id 15 
     name upperneck
     direction 0.128124 0.971079 -0.201469   
     length 1.68242   
     axis 0 0 0   XYZ
    dof rx ry rz
    limits (-20.0 45.0)
           (-30.0 30.0)
           (-30.0 30.0)
  end
  begin
     id 16
     name head
     direction 0.0496365 0.994919 -0.0875941  
     length 1.70108  
     axis 0 0 0   XYZ
    dof rx ry rz
    limits (-20.0 45.0)
           (-30.0 30.0)
           (-30.0 30.0)
  end
  begin
     id 17 
     name lclavicle
     direction 0.887148 0.430222 -0.166967  
     length 3.25763  
     axis 0 0 0   XYZ
    dof ry rz
    limits (-20.0 10.0)
           (0.0 20.0)
  end
  begin
     id 18 
     name lhumerus
     direction 1 -4.48962e-011 1.92156e-027   
     length 5.10755   
     axis 180 -30 -90   XYZ
    dof rx ry rz
    limits (-60.0 90.0)
           (-90.0 90.0)
           (-90.0 90.0)
  end
  begin
     id 19
     name lradius
     direction 1 -4.48958e-011 7.10963e-027   
     length 3.36253   
     axis 180 -30 -90   XYZ
    dof rx
    limits (-10.0 170.0)
  end
  begin
     id 20
     name lwrist
     direction 1 -4.48946e-011 1.82396e-026   
     length 1.68127   
     axis -1.15222e-014 90 90   XYZ
    dof ry
    limits (-180.0 0.0)
 end
  begin
     id 21 
     name lhand
     direction 1 -4.48919e-011 3.64759e-026   
     length 0.619088   
     axis -2.32787e-014 90 90   XYZ
    dof rx rz
    limits (-90.0 90.0)
           (-45.0 45.0)
  end
  begin
     id 22 
     name lfingers
     direction 1 -4.49012e-011 7.29744e-026   
     length 0.499125   
     axis -4.6558e-014 90 90   XYZ
    dof rx
    limits (0.0 90.0)
  end
  begin
     id 23
     name lthumb
     direction 0.707107 -6.35028e-011 0.707107   
     length 0.716646   
     axis -90 45 3.78391e-014   XYZ
    dof rx rz
    limits (-45.0 45.0)
           (-45.0 45.0)
  end
  begin
     id 24 
     name rclavicle
     direction -0.82886 0.533198 -0.169384   
     length 3.20647  
     axis 0 0 0   XYZ 
    dof ry rz
    limits (-10.0 20.0)
           (-20.0 0.0)
  end
  begin
     id 25 
     name rhumerus
     direction -1 -4.48973e-011 3.06863e-027  
     length 5.27387   
     axis 180 30 90   XYZ
    dof rx ry rz
    limits (-90.0 60.0)
           (-90.0 90.0)
           (-90.0 90.0)
  end
  begin
     id 26 
     name rradius
     direction -1 -4.48988e-011 9.4797e-027   
     length 3.40144   
     axis 180 30 90   XYZ
    dof rx
    limits (-10.0 170.0)
  end
  begin
     id 27 
     name rwrist
     direction -1 -4.48897e-011 1.82366e-026   
     length 1.70072   
     axis -1.15222e-014 -90 -90   XYZ
    dof ry
    limits (-180.0 0.0)
  end
  begin
     id 28
     name rhand
     direction -1 -4.48965e-011 3.64815e-026   
     length 0.742821   
     axis -2.32787e-014 -90 -90   XYZ
    dof rx rz
    limits (-90.0 90.0)
           (-45.0 45.0)
  end
  begin
     id 29
     name rfingers
     direction -1 -4.49016e-011 7.29754e-026   
     length 0.598881   
     axis -4.6558e-014 -90 -90   XYZ
    dof rx
    limits (0.0 90.0)
  end
  begin
     id 30
     name rthumb
     direction -0.707107 -6.3488e-011 0.707107   
     length 0.859877   
     axis -90 -45 -3.78391e-014   XYZ
    dof rx rz
    limits (-45.0 45.0)
           (-45.0 45.0)
  end
:hierarchy
  begin
    root lhipjoint rhipjoint lowerback
    lhipjoint lfemur
    lfemur ltibia
    ltibia lfoot
    lfoot ltoes
    rhipjoint rfemur
    rfemur rtibia
    rtibia rfoot
    rfoot rtoes
    lowerback upperback
    upperback thorax
    thorax lowerneck lclavicle rclavicle
    lowerneck upperneck
    upperneck head
    lclavicle lhumerus
    lhumerus lradius
    lradius lwrist
    lwrist lhand lthumb
    lhand lfingers
    rclavicle rhumerus
    rhumerus rradius
    rradius rwrist
    rwrist rhand rthumb
    rhand rfingers
  end

#!OML:ASF F:\Work\Patient Classification 1\justin\Session 1\justin.ASF
:FULLY-SPECIFIED
:DEGREES
724
root 0.740302 18.4431 -4.48193 3.25063 1.00406 -2.30381
lowerback 9.39733 -0.987756 0.168149
upperback -1.32992 -1.1153 2.79023
thorax -6.62661 -0.497225 3.00589
lowerneck -15.8029 -4.18575 -13.099
upperneck 17.7479 -5.24212 12.8969
head 8.84272 -2.078 5.98374
rclavicle 2.23136e-014 -2.62396e-014
rhumerus 43.3681 11.7162 -47.061
rradius 83.7766
rwrist 4.99006
rhand 0.86532 4.44026
rfingers 7.12502
rthumb 26.4189 -23.7388
lclavicle 2.23136e-014 -2.62396e-014
lhumerus 13.1535 -35.3374 67.9828
lradius 66.7419
lwrist -18.2328
lhand -14.368 35.4848
lfingers 7.12502
lthumb 11.7743 65.1339
rfemur -7.07802 -0.955347 22.5096
rtibia 19.9518
rfoot -11.7153 -3.33036
rtoes -8.83821
lfemur -5.50616 4.77272 -16.8936
ltibia 17.4294
lfoot -10.6354 -0.0671023
ltoes -15.0279
725
root 0.734453 18.4486 -4.48303 3.22237 1.36472 -2.33428
lowerback 9.29116 -0.867984 0.274029
upperback -1.24537 -0.947394 2.78176
thorax -6.48654 -0.420674 2.90727
lowerneck -15.7026 -4.40696 -13.2494
upperneck 17.5783 -5.53035 12.9859
head 8.81724 -2.21786 5.99846
rclavicle 7.85199e-015 8.74653e-015
rhumerus 44.334 10.953 -46.8088
rradius 82.2198
rwrist 5.07938
rhand 0.756553 4.49112
rfingers 7.12502
rthumb 26.3148 -23.7035
lclavicle 7.85199e-015 8.74653e-015
lhumerus 12.5839 -36.3997 68.165
lradius 68.2646
lwrist -18.1062
lhand -14.2543 35.9649
lfingers 7.12502
lthumb 11.8839 65.6076
rfemur -7.06487 -1.06574 22.56
rtibia 19.927
rfoot -11.7107 -3.4878
rtoes -8.8709
lfemur -5.48324 4.59786 -16.8552
ltibia 17.3481
lfoot -10.5879 -0.144151
ltoes -14.422
726
root 0.72774 18.4487 -4.48324 3.21839 1.92716 -2.33802
lowerback 9.23021 -0.793038 0.395674
upperback -1.26271 -0.836576 2.73931
thorax -6.47766 -0.371426 2.77636
lowerneck -15.4704 -4.61953 -13.2902
upperneck 17.45 -5.84161 13.0162
head 8.78023 -2.37131 5.97163
rclavicle 8.69683e-015 -2.38542e-014
rhumerus 45.0316 10.2433 -46.6026
rradius 80.6097
rwrist 5.19577
rhand 0.633989 4.78886
rfingers 7.12502
rthumb 26.1975 -23.4232
lclavicle 8.69683e-015 -2.38542e-014
lhumerus 11.7641 -37.4853 68.5463
lradius 69.8079
lwrist -18.2167
lhand -13.8279 36.1898
lfingers 7.12502
lthumb 12.295 65.8083
rfemur -6.99655 -1.1035 22.5961
rtibia 19.8636
rfoot -11.8838 -3.81532
rtoes -8.92293
lfemur -5.52209 4.33844 -16.839
ltibia 17.3174
lfoot -10.5864 -0.29953
ltoes -14.4585
727
root 0.715618 18.4466 -4.48268 3.2419 2.6153 -2.45473
lowerback 9.37667 -0.726703 0.58334
upperback -1.38357 -0.719295 2.74458
thorax -6.69695 -0.318305 2.66477
lowerneck -15.3852 -4.86136 -13.2244
upperneck 17.4896 -6.18435 12.8943
head 8.82307 -2.54203 5.87169
rclavicle -9.0944e-015 1.59028e-015
rhumerus 45.4562 9.56649 -46.295
rradius 79.1763
rwrist 5.0232
rhand 0.726612 4.75829
rfingers 7.12502
rthumb 26.2862 -23.4406
lclavicle -9.0944e-015 1.59028e-015
lhumerus 10.889 -38.7388 68.9859
lradius 71.3899
lwrist -18.356
lhand -13.2499 36.6571
lfingers 7.12502
lthumb 12.8523 66.2414
rfemur -6.93751 -0.842634 22.8359
rtibia 19.8262
rfoot -12.0716 -4.59519
rtoes -10.0419
lfemur -5.66721 4.10074 -16.6582
ltibia 17.3034
lfoot -10.5388 -0.535964
ltoes -15.2036
728
root 0.707782 18.4474 -4.47948 3.25237 3.13433 -2.45986
lowerback 9.42852 -0.54556 0.747404
upperback -1.22493 -0.465614 2.67223
thorax -6.57031 -0.202729 2.45564
lowerneck -16.169 -5.26219 -13.1225
upperneck 17.683 -6.67173 12.7982
head 9.09886 -2.74561 5.75307
rclavicle -1.24737e-014 -2.8625e-014
rhumerus 46.1348 8.47362 -45.9337
rradius 77.6573
rwrist 4.81528
rhand 0.796127 4.66746
rfingers 7.12502
rthumb 26.3527 -23.5215
lclavicle -1.24737e-014 -2.8625e-014
lhumerus 11.0325 -40.1864 68.709
lradius 72.9315
lwrist -18.5797
lhand -12.4508 37.3131
lfingers 7.12502
lthumb 13.6226 66.8474
rfemur -6.88361 -0.780098 22.9158
rtibia 19.7853
rfoot -12.1755 -5.08496
rtoes -11.6133
lfemur -5.78742 3.88043 -16.6293
ltibia 17.3625
lfoot -10.5628 -0.626369
ltoes -15.4261
729
root 0.706983 18.4498 -4.47357 3.22529 3.39954 -2.36707
lowerback 9.21748 -0.43251 0.714793
upperback -1.23725 -0.322448 2.68375
thorax -6.46808 -0.131507 2.46155
lowerneck -15.5742 -5.31891 -13.3252
upperneck 17.4535 -6.76572 12.8616
head 8.93507 -2.81749 5.79514
rclavicle -3.03147e-015 3.97569e-016
rhumerus 46.7434 8.16419 -45.6511
rradius 76.0275
rwrist 4.76833
rhand 0.426225 4.83075
rfingers 7.12502
rthumb 25.9986 -23.4107
lclavicle -3.03147e-015 3.97569e-016
lhumerus 10.3202 -41.3664 68.9313
lradius 74.4494
lwrist -19.0842
lhand -11.8442 37.7765
lfingers 7.12502
lthumb 14.2071 67.2706
rfemur -6.76207 -0.937367 22.8065
rtibia 19.6958
rfoot -12.266 -5.08711
rtoes -11.513
lfemur -5.77289 3.65764 -16.7491
ltibia 17.4732
lfoot -10.7248 -0.516599
ltoes -14.7441
730
root 0.703688 18.4543 -4.46873 3.22654 3.67879 -2.41312
lowerback 8.92387 -0.284311 0.873248
upperback -1.05361 -0.119943 2.66936
thorax -6.11452 -0.0400454 2.32053
lowerneck -15.6659 -5.49972 -13.401
upperneck 17.3283 -7.00192 12.9775
head 8.95242 -2.91873 5.8128
rclavicle -9.79014e-015 4.01545e-014
rhumerus 47.431 7.50577 -45.3788
rradius 74.3601
rwrist 4.86289
rhand -0.204134 5.17143
rfingers 7.12502
rthumb 25.3948 -23.1573
lclavicle -9.79014e-015 4.01545e-014
lhumerus 10.3021 -42.3227 68.8093
lradius 75.8826
lwrist -19.1257
lhand -11.3523 38.4956
lfingers 7.12502
lthumb 14.6811 67.9558
rfemur -6.6723 -0.977134 22.8772
rtibia 19.6046
rfoot -12.3242 -5.2545
rtoes -10.9201
lfemur -5.73011 3.45541 -16.6922
ltibia 17.4857
lfoot -10.8505 -0.428547
ltoes -14.0163
731
root 0.695538 18.457 -4.46522 3.19943 4.18437 -2.42858
lowerback 8.85358 -0.203768 0.983312
upperback -1.0484 -0.00422296 2.63607
thorax -6.07291 0.0124678 2.20629
lowerneck -15.3519 -5.676 -13.5262
upperneck 17.2073 -7.28293 13.1482
head 8.908 -3.05343 5.85593
rclavicle 3.62782e-015 -3.97569e-015
rhumerus 47.7838 7.04752 -44.9763
rradius 72.6979
rwrist 4.81144
rhand -0.616548 5.34428
rfingers 7.12502
rthumb 24.9997 -23.04
lclavicle 3.62782e-015 -3.97569e-015
lhumerus 10.0018 -43.3096 68.8535
lradius 77.3087
lwrist -18.7345
lhand -10.7522 39.5893
lfingers 7.12502
lthumb 15.2592 69.0064
rfemur -6.5624 -0.980455 22.9652
rtibia 19.5631
rfoot -12.337 -5.7097
rtoes -11.1501
lfemur -5.788 3.33891 -16.6362
ltibia 17.5466
lfoot -10.8922 -0.592173
ltoes -14.4291
732
root 0.685379 18.4571 -4.45753 3.08433 4.97197 -2.28948
lowerback 8.94617 -0.240193 0.949631
upperback -1.15401 -0.0549407 2.57045
thorax -6.23538 -0.0116861 2.16595
lowerneck -14.8128 -5.86431 -13.6718
upperneck 17.2223 -7.59764 13.223
head 8.87077 -3.22261 5.86962
rclavicle 6.16232e-015 7.95139e-015
rhumerus 48.0542 6.81215 -45.1624
rradius 71.2259
rwrist 4.96903
rhand -0.298152 5.12908
rfingers 7.12502
rthumb 25.3048 -23.2124
lclavicle 6.16232e-015 7.95139e-015
lhumerus 9.53669 -44.4377 68.8575
lradius 78.7055
lwrist -18.3388
lhand -10.4441 40.6747
lfingers 7.12502
lthumb 15.5559 70.069
rfemur -6.25364 -1.15474 22.8999
rtibia 19.4279
rfoot -12.4541 -6.2016
rtoes -10.8438
lfemur -5.90969 3.19959 -16.7265
ltibia 17.7603
lfoot -10.8935 -1.01498
ltoes -15.4893
